
        <svg xmlns="http://www.w3.org/2000/svg" xmlns:xlink="http://www.w3.org/1999/xlink" version="1.1" width="3162.105992379633" 
        height="467.6826452789828" viewBox="0 0 3162.105992379633 467.6826452789828">
			
			<g transform="scale(8.105299618981642) translate(10, 10)">
				<defs id="SvgjsDefs2157"></defs><g id="SvgjsG2158" featureKey="symbolFeature-0" transform="matrix(0.9089798415602042,0,0,0.9089798415602042,-7.106403822248029,-10.690511625320996)" fill="#1665f8"><path xmlns="http://www.w3.org/2000/svg" d="M53.934,30.157c-0.33,0-0.643,0.064-0.943,0.156l-4.707-8.183c0.278-0.479,0.45-1.028,0.45-1.622  c0-1.792-1.457-3.249-3.249-3.249c-0.983,0-1.854,0.448-2.451,1.14l-7.43-2.918c0.023-0.155,0.048-0.31,0.048-0.471  c0-1.792-1.457-3.249-3.249-3.249c-1.792,0-3.249,1.458-3.249,3.249c0,0.123,0.023,0.239,0.036,0.358l-6.296,0.886  c-0.545-1.031-1.616-1.744-2.862-1.744c-1.792,0-3.249,1.458-3.249,3.249c0,0.614,0.181,1.182,0.478,1.672l-5.243,5.386  c-0.303-0.094-0.618-0.159-0.951-0.159c-1.792,0-3.249,1.458-3.249,3.249s1.458,3.249,3.249,3.249c0.594,0,1.144-0.172,1.623-0.451  l8.451,5.115c-0.012,0.11-0.034,0.219-0.034,0.333c0,1.792,1.458,3.249,3.249,3.249c0.919,0,1.747-0.388,2.338-1.004l12.402,10.54  c-0.114,0.331-0.189,0.681-0.189,1.05c0,1.792,1.457,3.249,3.249,3.249s3.249-1.457,3.249-3.249c0-0.199-0.024-0.392-0.059-0.581  l8.258-12.787c0.11,0.011,0.217,0.033,0.33,0.033c1.792,0,3.249-1.457,3.249-3.248C57.183,31.615,55.726,30.157,53.934,30.157z   M26.26,29.213c1.396-0.182,2.517-1.242,2.771-2.615l5.105,0.965c-0.013,0.115-0.035,0.227-0.035,0.344  c0,0.697,0.226,1.341,0.602,1.871l-7.241,5.479c-0.288-0.993-1.029-1.786-1.992-2.142L26.26,29.213z M32.402,18.26  c0.272,0,0.533-0.043,0.785-0.107l2.457,7.002c-0.551,0.343-0.993,0.84-1.26,1.438l-5.337-1.009  c-0.104-0.79-0.486-1.486-1.054-1.992l3.522-5.47C31.8,18.203,32.093,18.26,32.402,18.26z M27.577,36.424l7.833-5.927  c0.543,0.408,1.21,0.659,1.94,0.659c0.513,0,0.992-0.13,1.424-0.343l2.733,5.014c-0.579,0.485-0.988,1.159-1.121,1.936  l-12.819-1.241C27.571,36.488,27.575,36.456,27.577,36.424z M50.685,33.406c0,0.158,0.024,0.311,0.047,0.464l-4.42,2.691  c-0.578-0.9-1.583-1.502-2.73-1.502c-0.432,0-0.843,0.089-1.22,0.242l-2.76-5.061c0.613-0.591,0.998-1.417,0.998-2.333  c0-0.64-0.192-1.233-0.513-1.736l3.504-3.033c0.534,0.386,1.186,0.62,1.894,0.62c0.813,0,1.547-0.31,2.117-0.805l4.481,7.789  C51.24,31.33,50.685,32.303,50.685,33.406z M42.88,22.432l-3.459,2.993c-0.563-0.471-1.279-0.766-2.07-0.766  c-0.271,0-0.531,0.043-0.783,0.106l-2.457-7.003c0.514-0.32,0.927-0.778,1.196-1.323l7.181,2.82  c-0.161,0.385-0.252,0.807-0.252,1.25C42.235,21.23,42.479,21.892,42.88,22.432z M30.594,17.708l-3.436,5.334  c-0.404-0.18-0.847-0.285-1.317-0.285c-0.477,0-0.926,0.109-1.334,0.294l-2.161-3.019c0.576-0.587,0.934-1.389,0.934-2.273  c0-0.186-0.025-0.365-0.055-0.542l6.221-0.875C29.697,16.897,30.094,17.372,30.594,17.708z M17.909,20.2  c0.571,0.497,1.308,0.809,2.123,0.809c0.546,0,1.054-0.148,1.506-0.388l2.135,2.984c-0.657,0.594-1.078,1.443-1.08,2.396  l-8.336,1.331c-0.152-0.842-0.628-1.567-1.295-2.05L17.909,20.2z M14.271,28.342l8.489-1.355c0.359,1.125,1.303,1.986,2.482,2.208  l-0.753,3.726c-0.045-0.002-0.088-0.014-0.134-0.014c-1.312,0-2.438,0.785-2.951,1.906l-7.899-4.781  C13.913,29.564,14.185,28.985,14.271,28.342z M27.304,37.501l13.075,1.267c0.195,1.37,1.238,2.468,2.588,2.727l-1.219,5.287  c-0.886,0.112-1.656,0.576-2.172,1.254L27.265,37.572C27.277,37.548,27.292,37.525,27.304,37.501z M42.77,46.803l1.219-5.287  c1.599-0.203,2.842-1.556,2.842-3.207c0-0.285-0.049-0.557-0.118-0.82l4.327-2.637c0.332,0.66,0.874,1.192,1.547,1.502  l-7.689,11.907C44.425,47.517,43.665,46.975,42.77,46.803z"></path></g><g id="SvgjsG2159" featureKey="nameFeature-0" transform="matrix(0.9229528967369476,0,0,0.9229528967369476,64.04012814240497,-8.112351081112044)" fill="#0080f8"><path d="M15.52 17.8 c-4.64 0 -8.16 3.72 -8.16 8.44 c0 4.84 3.52 8.52 8.36 8.52 c3.36 0 5.92 -1.76 7.48 -4.44 l4.84 3.36 c-2.64 4.32 -6.68 6.88 -12.24 6.88 c-8.44 0 -14.76 -6.28 -14.76 -14.32 c0 -7.96 6.28 -14.2 14.6 -14.2 c5.4 0 9.68 2.24 12.28 6.84 l-4.92 3.4 c-1.6 -2.64 -4 -4.48 -7.48 -4.48 z M40.52 19.08 c6.32 0 11.04 4.72 11.04 10.72 c0 5.96 -4.72 10.68 -11.04 10.68 s-11 -4.68 -11 -10.68 c0 -5.96 4.72 -10.72 11 -10.72 z M40.52 24.119999999999997 c-3.12 0 -5.52 2.4 -5.52 5.68 s2.28 5.72 5.4 5.72 s5.64 -2.44 5.64 -5.72 s-2.4 -5.68 -5.52 -5.68 z M63.68 24.16 c-2.92 0 -5.28 2.44 -5.28 5.4 c0 3.04 2.36 5.4 5.28 5.4 c3.16 0 5.52 -2.36 5.52 -5.4 c0 -2.96 -2.4 -5.4 -5.52 -5.4 z M63.64 47.519999999999996 c-4.6 0 -7.8 -1.76 -9.92 -4.8 l4 -2.72 c1.24 1.72 3.2 2.84 5.84 2.84 c3.44 0 5.56 -1.44 5.56 -4.36 l0 -0.56 c-1.48 1.24 -3.52 1.88 -5.92 1.88 c-5.48 0 -10.2 -4.44 -10.2 -10.28 c0 -5.8 4.72 -10.36 10.2 -10.36 c2.72 0 4.72 0.88 5.92 1.84 l0 -1.52 l5.52 0 l0 18.52 c0 5.28 -3.92 9.52 -11 9.52 z M82.32 19.48 l0 2.08 c1 -1.16 3.12 -2.44 5.96 -2.44 c4.8 0 7.92 3.32 7.92 8.28 l0 12.6 l-5.52 0 l0 -11.64 c0 -2.44 -1.4 -4.12 -3.76 -4.12 c-2.72 0 -4.52 1.72 -4.52 4.56 l0 11.2 l-5.56 0 l0 -20.52 l5.48 0 z M104 17.72 l-5.56 0 l0 -5.12 l5.56 0 l0 5.12 z M104 40 l-5.56 0 l0 -20.52 l5.56 0 l0 20.52 z M114.44 19.48 l5.04 0 l0 4.96 l-5.04 0 l0 8.24 c0 1.84 0.84 2.56 2.72 2.56 l2.32 0 l0 4.76 l-2.72 0 c-5.44 0 -7.88 -2.44 -7.88 -7.04 l0 -8.52 l-2.96 0 l0 -4.96 l2.96 0 l0 -5.28 l5.56 0 l0 5.28 z M127.12 17.72 l-5.56 0 l0 -5.12 l5.56 0 l0 5.12 z M127.12 40 l-5.56 0 l0 -20.52 l5.56 0 l0 20.52 z M142.76000000000002 40 l-7.44 0 l-6.68 -20.52 l6.08 0 l4.44 15.24 l4.4 -15.24 l5.88 0 z M171.12 35.6 c-2 3 -5.16 4.88 -9.72 4.88 c-6.56 0 -10.8 -4.6 -10.8 -10.68 c0 -5.92 4.4 -10.72 10.84 -10.72 c6.48 0 10.4 4.48 10.4 10.44 c0 0.8 -0.08 1.84 -0.08 1.96 l-15.68 0 c0.6 2.6 2.56 4.28 5.44 4.28 c2.48 0 4.28 -1.08 5.44 -2.72 z M161.4 23.64 c-2.6 0 -4.4 1.4 -5.12 3.72 l9.96 0 c-0.6 -2.48 -2.6 -3.72 -4.84 -3.72 z M188.16000000000003 17.8 c-4.64 0 -8.16 3.72 -8.16 8.44 c0 4.84 3.52 8.52 8.36 8.52 c3.36 0 5.92 -1.76 7.48 -4.44 l4.84 3.36 c-2.64 4.32 -6.68 6.88 -12.24 6.88 c-8.44 0 -14.76 -6.28 -14.76 -14.32 c0 -7.96 6.28 -14.2 14.6 -14.2 c5.4 0 9.68 2.24 12.28 6.84 l-4.92 3.4 c-1.6 -2.64 -4 -4.48 -7.48 -4.48 z M208.12 40 l-5.6 0 l0 -20.52 l5.56 0 l0 2.8 c1.36 -1.88 3.4 -3.08 5.96 -3.08 l0 5.6 c-4.08 0 -5.92 2.28 -5.92 5.84 l0 9.36 z M234.8 35.6 c-2 3 -5.16 4.88 -9.72 4.88 c-6.56 0 -10.8 -4.6 -10.8 -10.68 c0 -5.92 4.4 -10.72 10.84 -10.72 c6.48 0 10.4 4.48 10.4 10.44 c0 0.8 -0.08 1.84 -0.08 1.96 l-15.68 0 c0.6 2.6 2.56 4.28 5.44 4.28 c2.48 0 4.28 -1.08 5.44 -2.72 z M225.08 23.64 c-2.6 0 -4.4 1.4 -5.12 3.72 l9.96 0 c-0.6 -2.48 -2.6 -3.72 -4.84 -3.72 z M247.92000000000002 24.32 c-3.04 0 -5.4 2.48 -5.4 5.52 c0 3.08 2.36 5.52 5.4 5.52 c3.2 0 5.6 -2.44 5.6 -5.52 c0 -3.04 -2.48 -5.52 -5.6 -5.52 z M253.44000000000003 40 l0 -1.52 c-1.44 1.12 -3.68 1.8 -6 1.8 c-5.6 0 -10.36 -4.52 -10.36 -10.44 s4.76 -10.56 10.36 -10.56 c2.32 0 4.56 0.72 6 1.84 l0 -1.64 l5.56 0 l0 20.52 l-5.56 0 z M269.44 19.48 l5.04 0 l0 4.96 l-5.04 0 l0 8.24 c0 1.84 0.84 2.56 2.72 2.56 l2.32 0 l0 4.76 l-2.72 0 c-5.44 0 -7.88 -2.44 -7.88 -7.04 l0 -8.52 l-2.96 0 l0 -4.96 l2.96 0 l0 -5.28 l5.56 0 l0 5.28 z M287.2 19.08 c6.32 0 11.04 4.72 11.04 10.72 c0 5.96 -4.72 10.68 -11.04 10.68 s-11 -4.68 -11 -10.68 c0 -5.96 4.72 -10.72 11 -10.72 z M287.2 24.119999999999997 c-3.12 0 -5.52 2.4 -5.52 5.68 s2.28 5.72 5.4 5.72 s5.64 -2.44 5.64 -5.72 s-2.4 -5.68 -5.52 -5.68 z M305.64000000000004 40 l-5.6 0 l0 -20.52 l5.56 0 l0 2.8 c1.36 -1.88 3.4 -3.08 5.96 -3.08 l0 5.6 c-4.08 0 -5.92 2.28 -5.92 5.84 l0 9.36 z M313.24 33.56 l5.64 0 c0 1.24 0.84 2.76 3.8 2.8 c2.08 0 3.04 -0.96 3.04 -1.92 c0 -3.6 -12.12 0.08 -12.12 -8.56 c0 -3.72 3.28 -6.64 8.48 -6.64 s8.48 2.68 8.8 6.8 l-5.56 0 c-0.08 -1.48 -0.68 -2.6 -3.16 -2.6 c-1.6 0 -2.92 0.52 -2.92 1.8 c0 3.68 12.4 0.44 12.4 8.24 c0 4.88 -4.08 6.92 -9.24 6.92 c-5.6 0 -9.04 -2.92 -9.16 -6.84 z"></path></g>
			</g>
		</svg>
	